<svg width="26" height="22" viewBox="0 0 26 22" fill="none" xmlns="http://www.w3.org/2000/svg">
<path d="M23 11L23.7658 9.71022C24.221 9.98048 24.5 10.4706 24.5 11C24.5 11.5294 24.221 12.0195 23.7658 12.2898L23 11ZM7 20.5L7.76581 21.7898C7.3022 22.0651 6.72652 22.0703 6.25795 21.8036C5.78937 21.5369 5.5 21.0392 5.5 20.5H7ZM6.23419 2.78978C5.52186 2.36684 5.28727 1.44652 5.71022 0.734192C6.13316 0.0218639 7.05348 -0.212727 7.76581 0.210218L6.23419 2.78978ZM5.5 2C5.5 1.17157 6.17157 0.5 7 0.5C7.82843 0.5 8.5 1.17157 8.5 2H5.5ZM23.7658 12.2898L7.76581 21.7898L6.23419 19.2102L22.2342 9.71022L23.7658 12.2898ZM22.2342 12.2898L6.23419 2.78978L7.76581 0.210218L23.7658 9.71022L22.2342 12.2898ZM8.5 2L8.5 20.5H5.5L5.5 2H8.5Z" fill="#D4E2D5"/>
</svg>
