<svg width="14" height="14" viewBox="0 0 14 14" fill="none" xmlns="http://www.w3.org/2000/svg">
<path d="M12 13.5H11.915C2.09 12.935 0.695002 4.645 0.500002 2.115C0.484289 1.91829 0.507546 1.72041 0.568439 1.53271C0.629332 1.345 0.726665 1.17115 0.85486 1.02113C0.983056 0.8711 1.13959 0.747844 1.31551 0.65842C1.49142 0.568996 1.68325 0.515161 1.88 0.5H4.635C4.83528 0.499807 5.031 0.559755 5.19682 0.672081C5.36263 0.784407 5.4909 0.943935 5.565 1.13L6.325 3C6.39818 3.18177 6.41634 3.38104 6.37722 3.57305C6.33811 3.76505 6.24345 3.94134 6.105 4.08L5.04 5.155C5.20636 6.10037 5.65909 6.97183 6.33695 7.65148C7.01481 8.33112 7.88507 8.78615 8.83 8.955L9.915 7.88C10.0557 7.74308 10.2337 7.65063 10.4266 7.61417C10.6196 7.57771 10.819 7.59887 11 7.675L12.885 8.43C13.0683 8.50644 13.2246 8.63571 13.3341 8.80134C13.4437 8.96696 13.5014 9.16144 13.5 9.36V12C13.5 12.3978 13.342 12.7794 13.0607 13.0607C12.7794 13.342 12.3978 13.5 12 13.5ZM2 1.5C1.86739 1.5 1.74022 1.55268 1.64645 1.64645C1.55268 1.74022 1.5 1.86739 1.5 2V2.04C1.73 5 3.205 12 11.97 12.5C12.0357 12.5041 12.1015 12.4951 12.1638 12.4737C12.226 12.4522 12.2833 12.4187 12.3326 12.375C12.3818 12.3314 12.422 12.2784 12.4507 12.2192C12.4794 12.16 12.4962 12.0957 12.5 12.03V9.36L10.615 8.605L9.18 10.03L8.94 10C4.59 9.455 4 5.105 4 5.06L3.97 4.82L5.39 3.385L4.64 1.5H2Z" fill="white"/>
</svg>
