<svg width="19" height="41" viewBox="0 0 19 41" fill="none" xmlns="http://www.w3.org/2000/svg">
<path d="M16 20.5L18.4082 22.289C19.1973 21.2268 19.1973 19.7732 18.4082 18.711L16 20.5ZM5.40823 1.21103C4.42021 -0.119002 2.54106 -0.396254 1.21103 0.591769C-0.119002 1.57979 -0.396254 3.45894 0.591769 4.78897L5.40823 1.21103ZM0.591769 36.211C-0.396254 37.5411 -0.119002 39.4202 1.21103 40.4082C2.54106 41.3963 4.42021 41.119 5.40823 39.789L0.591769 36.211ZM18.4082 18.711L5.40823 1.21103L0.591769 4.78897L13.5918 22.289L18.4082 18.711ZM13.5918 18.711L0.591769 36.211L5.40823 39.789L18.4082 22.289L13.5918 18.711Z" fill="#6C9392"/>
</svg>
