<svg width="19" height="41" viewBox="0 0 19 41" fill="none" xmlns="http://www.w3.org/2000/svg">
<path d="M3 20.5L0.591768 22.289C-0.197256 21.2268 -0.197256 19.7732 0.591768 18.711L3 20.5ZM13.5918 1.21103C14.5798 -0.119002 16.4589 -0.396254 17.789 0.591769C19.119 1.57979 19.3963 3.45894 18.4082 4.78897L13.5918 1.21103ZM18.4082 36.211C19.3963 37.5411 19.119 39.4202 17.789 40.4082C16.4589 41.3963 14.5798 41.119 13.5918 39.789L18.4082 36.211ZM0.591768 18.711L13.5918 1.21103L18.4082 4.78897L5.40823 22.289L0.591768 18.711ZM5.40823 18.711L18.4082 36.211L13.5918 39.789L0.591768 22.289L5.40823 18.711Z" fill="#6C9392"/>
</svg>
