<svg width="154" height="57" viewBox="0 0 154 57" fill="none" xmlns="http://www.w3.org/2000/svg">
<path d="M118.3 6.0475C120.163 6.0475 121.073 6.575 121.363 7.7475C121.695 9.0975 120.612 11.165 119.202 11.895C118.664 12.1714 118.05 12.2638 117.454 12.1582C116.858 12.0525 116.313 11.7546 115.902 11.31C114.82 10.1325 115.475 8.8675 115.81 7.6925C116.145 6.5175 117.108 5.91 118.3 6.0475Z" fill="#CCC18E"/>
<path fill-rule="evenodd" clip-rule="evenodd" d="M68.8966 15.813L68.8966 15.8131C69.5112 15.9891 70.1354 16.1678 70.75 16.4225C70.778 18.3487 70.6434 20.2739 70.3475 22.1775C70.1025 23.83 69.78 25.4625 68.925 26.9275C68.175 28.2225 66.8925 28.8125 65.675 28.405C64.9727 28.1305 64.3399 27.7035 63.8225 27.155C62.05 25.455 62.04 24.405 63.7475 22.655C63.8287 22.5716 63.9136 22.4913 63.9984 22.411C64.384 22.0462 64.7684 21.6825 64.795 21.035C64.865 19.445 63.1325 17.8875 61.4975 18.1375C59.005 18.5225 58.1575 19.2575 57.715 21.845C57.3375 24.065 57.475 26.1625 59.415 27.845C60.6675 28.93 62.1075 29.5125 63.5925 29.9875C66.3775 30.875 69.1275 30.79 71.5 28.855C72.8072 27.815 73.8712 26.5018 74.6175 25.0075L74.6306 24.9791C74.8122 24.5857 75.017 24.1418 75.6175 24.32C75.7938 24.5293 75.7868 24.7653 75.7798 24.9988C75.7757 25.1363 75.7717 25.2728 75.805 25.4025C76.445 27.87 77.8425 29.4575 80.5925 28.92C82.1131 28.6366 83.5234 27.9314 84.6625 26.885C85.4575 26.1575 86.225 25.6275 87.3725 25.6C88.132 25.5827 88.8161 25.1155 89.4776 24.6637L89.505 24.645C89.7192 24.4981 89.9104 24.3143 90.1023 24.1299L90.1023 24.1298C90.4658 23.7804 90.8315 23.4288 91.36 23.3225C91.5783 23.7112 91.4284 23.9962 91.2855 24.268L91.2854 24.2681L91.2853 24.2683C91.2564 24.3233 91.2278 24.3778 91.2025 24.4325C90.8307 25.2432 90.6937 26.1116 90.5573 26.9756L90.54 27.085C90.4375 27.73 90.54 28.36 91.1525 28.7425C91.4327 28.9264 91.7593 29.0268 92.0944 29.0321C92.4295 29.0375 92.7592 28.9474 93.045 28.7725C93.7493 28.4145 94.3964 27.9536 94.965 27.405C96.4777 25.8268 97.7018 24.0343 98.9256 22.2423L99.18 21.87C99.2405 21.7807 99.3004 21.6823 99.3615 21.5818C99.6716 21.072 100.013 20.51 100.628 20.8275C101.35 21.2022 101.03 21.7901 100.738 22.3257C100.673 22.444 100.61 22.5597 100.56 22.67C100.39 23.0039 100.202 23.3285 99.9975 23.6425C99.5505 24.3972 99.2931 25.249 99.2475 26.125C99.13 28.44 101.018 29.6375 103.155 28.665C105.38 27.665 107.02 25.985 108.565 24.165C108.669 24.0428 108.759 23.9045 108.851 23.7636C109.108 23.3712 109.378 22.9584 109.985 22.815C109.905 23.1422 109.821 23.4568 109.74 23.7637L109.74 23.7638L109.74 23.7639C109.567 24.4159 109.403 25.0327 109.303 25.66C108.948 27.94 110.448 29.5875 112.553 29.22C113.375 29.0775 114.083 28.5975 114.75 28.0975C116.584 26.6599 118.186 24.9491 119.5 23.025C119.555 22.9466 119.609 22.8619 119.664 22.7751L119.664 22.775C119.945 22.3299 120.258 21.8323 121.045 21.8825C121.014 22.3679 120.951 22.8446 120.889 23.3169C120.77 24.2237 120.652 25.1143 120.768 26.02C121.103 28.655 123.825 29.9875 126.075 28.6125C127.021 28.0043 127.886 27.2803 128.653 26.4575C128.715 26.3958 128.776 26.3293 128.837 26.2625C129.064 26.0124 129.295 25.7588 129.653 25.745C130.921 25.6763 132.151 25.2866 133.228 24.6125C133.228 24.8859 133.226 25.1443 133.224 25.3929V25.393V25.3932C133.221 25.8627 133.218 26.2969 133.228 26.73C133.263 28.09 134.028 28.9625 135.39 28.98C136.593 28.995 137.808 28.81 138.808 28.0275C139.094 27.8043 139.384 27.5874 139.683 27.364L139.683 27.3636L139.684 27.3632L139.684 27.363C139.984 27.1387 140.292 26.9078 140.615 26.6575C140.745 26.9198 140.855 27.1914 140.945 27.47C141.285 28.95 141.87 29.3925 143.37 29.2475C144.026 29.1828 144.569 28.8546 145.117 28.524L145.19 28.48C146.66 27.5964 147.81 26.3563 148.955 25.1216C149.246 24.8088 149.535 24.4963 149.83 24.19C149.919 24.0999 150.015 24.0098 150.113 23.9175C150.655 23.4076 151.266 22.8326 151.16 21.8525C150.058 21.7264 149.36 22.3887 148.658 23.0547C148.066 23.6167 147.471 24.1814 146.628 24.2775C146.571 23.5899 146.824 23.1202 147.069 22.6645L147.085 22.635C147.823 21.24 148.579 19.8525 149.353 18.4725C149.77 17.7525 150.114 16.9919 150.378 16.2025C150.845 14.765 150.188 13.665 149.268 12.725C148.515 11.96 147.445 12.2225 146.423 13.21C146.305 13.3237 146.2 13.46 146.094 13.5971C145.773 14.0144 145.446 14.4382 144.75 14.25C141.773 13.4475 139.553 14.8825 137.595 16.7975C136.704 17.6727 135.905 18.6409 135.106 19.6097L135.106 19.6098L135.106 19.61L135.106 19.6101C134.661 20.1493 134.216 20.6887 133.755 21.2125C133.594 21.3947 133.44 21.5859 133.285 21.7784C132.824 22.3515 132.354 22.9351 131.668 23.3225C131.637 23.2513 131.614 23.1985 131.597 23.159C131.561 23.0777 131.55 23.0518 131.55 23.035C131.609 22.8866 131.676 22.7414 131.75 22.6C131.916 22.295 132.089 21.9928 132.262 21.6908L132.262 21.6905L132.262 21.6903C133.237 19.9844 134.209 18.2846 133.975 16.1375C133.83 14.805 133.203 14.285 131.905 14.6625C131.189 14.8869 130.514 15.2245 129.905 15.6625C126.903 17.7175 126 20.5 127.205 23.9475C127.325 24.32 127.395 24.7225 127.075 24.9975C126.991 25.0685 126.908 25.1429 126.823 25.2179C126.242 25.7345 125.629 26.2793 124.78 25.93C124.026 25.6197 124.124 24.971 124.219 24.3455C124.247 24.1647 124.274 23.9857 124.28 23.8175C124.34 23.4474 124.453 23.0879 124.615 22.75C125.267 21.0355 126.052 19.3747 126.963 17.7825C127.642 16.5233 128.335 15.2752 129.028 14.0281L129.028 14.0273L129.028 14.0272C129.728 12.7665 130.428 11.5067 131.113 10.2375C131.885 8.81497 131.01 6.65747 129.42 5.97247C128.56 5.60497 128.028 6.10997 127.278 8.01497C127.259 8.0995 127.235 8.18295 127.208 8.26497C126.944 8.7794 126.697 9.30692 126.45 9.8349C125.775 11.2775 125.098 12.7235 124.068 13.915C122.812 15.3665 121.628 16.8742 120.445 18.3814C119.556 19.5143 118.667 20.6468 117.748 21.755C116.96 22.695 116.128 23.5675 114.748 24.18C114.843 23.3516 115.152 22.7363 115.442 22.1604L115.442 22.1604L115.442 22.1604C115.586 21.8743 115.725 21.5979 115.83 21.31C115.979 20.9033 116.153 20.5039 116.327 20.1045L116.327 20.1044C116.802 19.0159 117.277 17.9277 117.24 16.695C117.236 16.1481 117.067 15.6151 116.755 15.1661C116.443 14.7172 116.002 14.3734 115.49 14.18C114.578 13.7875 113.825 14.29 113.155 14.93C112.398 15.656 111.827 16.5109 111.25 17.3741C111.136 17.5452 111.021 17.7167 110.905 17.8875L110.689 18.205L110.689 18.205L110.688 18.2052C109.408 20.084 108.121 21.9735 106.498 23.5875L106.441 23.6439C106.093 23.9927 105.699 24.3866 105.135 24.0025C105.013 23.7641 105.093 23.58 105.171 23.3989C105.192 23.3502 105.213 23.3017 105.23 23.2525C105.544 22.333 106.004 21.4806 106.464 20.6291L106.464 20.6291C106.913 19.7975 107.361 18.9668 107.673 18.075C107.759 17.8277 107.892 17.5755 108.026 17.3201C108.431 16.5527 108.85 15.7565 108.063 14.98C107.093 14.0275 105.803 14.44 104.655 14.8325C103.192 15.3466 101.771 15.9743 100.405 16.71C100.303 16.2561 100.471 15.9757 100.63 15.7112C100.662 15.6581 100.694 15.6056 100.723 15.5525C101.262 14.5521 101.807 13.5596 102.354 12.5637L102.354 12.5629C102.626 12.0682 102.898 11.5727 103.17 11.075C103.84 9.85247 103.948 8.67747 103.115 7.44247C101.76 5.43247 100.995 5.45247 99.825 7.58997C99.4928 8.19868 99.168 8.81115 98.8435 9.42324L98.8433 9.42355L98.8431 9.42395C97.3191 12.2984 95.7996 15.1642 93.5325 17.59C93.0266 18.1278 92.526 18.6712 92.0252 19.2149C91.0338 20.2913 90.0415 21.3685 89.005 22.405L88.9848 22.4252C88.7606 22.6501 88.5173 22.894 88.095 22.6125C87.9514 22.2814 88.1133 21.9965 88.2735 21.7145C88.3141 21.643 88.3546 21.5718 88.39 21.5C89.0571 20.1974 89.3766 18.7447 89.3175 17.2825C89.23 15.22 88.17 14.0525 86.09 14.0325C83.6133 14.0092 81.8062 15.4207 80.007 16.8262C79.8739 16.9302 79.7408 17.0341 79.6075 17.1375C78.9497 17.6479 78.4227 18.2803 77.8929 18.916C77.4159 19.4884 76.9367 20.0635 76.3575 20.555C76.3859 20.2251 76.3674 19.8799 76.349 19.5361C76.2977 18.5772 76.247 17.6291 77.215 17.055C78.6417 16.21 80.0692 15.3658 81.4975 14.5225C83.935 13.085 85.0275 10.975 84.985 8.22497C84.9935 7.44313 84.7235 6.68378 84.2233 6.08281C83.7231 5.48185 83.0254 5.07851 82.255 4.94497C80.7025 4.68997 79.07 4.51997 77.57 5.12747C73.8175 6.64997 70.9475 8.95497 70.7625 13.43C70.735 14.0675 70.495 14.2625 69.7925 14.105C68.365 13.785 67.435 12.955 66.8275 11.675C66.7804 11.5755 66.7345 11.4752 66.6885 11.3748C66.3879 10.7181 66.086 10.0587 65.455 9.62497C64.765 9.14997 64.2675 9.31497 64.0525 10.125C63.6475 11.635 64.46 13.39 65.71 14.405C66.6588 15.1722 67.7613 15.4879 68.8966 15.813L68.8966 15.813ZM76.5473 14.2026L76.5475 14.2075C76.6749 14.2075 76.7812 14.2153 76.8709 14.2219C77.024 14.2332 77.1287 14.2409 77.2075 14.2C78.73 13.4126 79.8948 12.1663 81.0302 10.9513L81.0525 10.9275C81.925 9.99496 81.575 8.73496 80.6275 7.99496C79.68 7.25496 78.9575 7.36246 77.9575 8.41746C76.4162 10.0537 76.4799 12.0694 76.5473 14.2026ZM85.66 21.395C83.8075 21.0625 82.99 21.9775 83.5925 23.6875C83.8799 24.4994 83.4666 24.9081 83.0381 25.3319L83.0381 25.3319C82.956 25.4131 82.8734 25.4948 82.795 25.58C82.51 25.89 82.2025 26.015 81.8225 25.7025C81.2675 25.2425 81.2325 24.685 81.3575 24.0175C81.8725 21.3 83.3225 19.1275 85.225 17.2025C85.53 16.8925 85.8575 16.625 86.3175 16.84C86.7775 17.055 86.7875 17.4825 86.7775 17.91C86.7568 18.8485 86.3965 19.6748 86.0212 20.5356L86.0211 20.5357C85.8986 20.8167 85.7745 21.1014 85.66 21.395ZM143.55 19.1325C143.775 18.5575 143.903 17.9575 143.625 17.3375C143.568 17.3375 143.511 17.3314 143.459 17.3257C143.356 17.3148 143.269 17.3054 143.223 17.345C141.283 19.0625 139.688 21.0625 138.873 23.5625C138.598 24.41 139.208 24.57 139.873 24.485C140.119 24.4453 140.356 24.3562 140.568 24.2231C140.78 24.0899 140.962 23.9154 141.105 23.71C142.132 22.3072 142.955 20.766 143.55 19.1325Z" fill="#CCC18E"/>
<path fill-rule="evenodd" clip-rule="evenodd" d="M33.4475 29.61C34.2775 26.86 34.4475 24.11 34.4775 21.295C33.25 22.0825 32.2125 22.9275 31.535 24.15C31.4595 24.2861 31.3851 24.423 31.3109 24.5598L31.3108 24.5598C30.7726 25.5507 30.2362 26.5383 29.2675 27.2325C27.571 28.4466 25.4833 28.9858 23.4111 28.745C21.3388 28.5042 19.4304 27.5007 18.0575 25.93L17.575 25.3875C16.8489 25.6925 16.3256 26.2339 15.8 26.7775C15.3737 27.2184 14.946 27.6609 14.4075 27.98C12.4941 29.1118 10.2449 29.5381 8.04999 29.185C5.84749 28.8725 2.82499 25.8575 3.17999 23.3C3.21573 23.0459 3.23841 22.7918 3.26085 22.5403C3.35461 21.4897 3.44435 20.484 4.46499 19.7175C6.15499 18.4475 7.68999 18.4675 9.10749 19.955C10.1075 21 10.14 21.55 9.18249 22.63C8.87266 22.9754 8.54074 23.3007 8.20876 23.6261L8.20871 23.6262C8.00497 23.8258 7.8012 24.0256 7.60249 24.23C7.55713 24.2768 7.50882 24.3232 7.46014 24.3699C7.17348 24.6452 6.87415 24.9326 7.08999 25.39C7.19806 25.6411 7.37433 25.8568 7.5988 26.0128C7.82328 26.1688 8.08698 26.2588 8.35999 26.2725C9.70749 26.36 10.93 26.05 11.86 25.0225C14.5933 22.0008 16.8806 18.604 18.6525 14.935C20.1925 11.75 22.055 8.74997 24.6575 6.26247C24.7937 6.10363 24.9143 5.932 25.0175 5.74997C24.9722 5.71254 24.9315 5.67087 24.894 5.63245C24.8237 5.56052 24.7645 5.49997 24.7075 5.49997C21.1425 5.63247 17.81 6.49997 15.1375 8.99997C13.555 10.4725 13.27 12.47 13.555 14.545C13.66 15.31 14.085 15.795 14.8675 16.03C15.6175 16.2575 16.5075 16.5675 16.15 17.6375C15.81 18.6675 14.355 19.1625 13.4425 18.595C12.475 17.985 11.645 17.25 11.4725 16C11.1225 13.465 10.9725 10.93 12.0625 8.52997C13.3825 5.64747 15.9525 4.42997 18.835 3.76497C21.1075 3.23997 23.41 2.95497 25.745 3.47247C27.0061 3.74925 28.1269 3.28289 29.2385 2.82032L29.2386 2.82029C29.4624 2.72717 29.6859 2.6342 29.91 2.54747C30.5625 2.29747 31.1925 2.05997 31.98 2.21247C31.8831 2.78189 31.5281 3.12516 31.1782 3.46358C30.8782 3.75365 30.5819 4.04016 30.455 4.46247C30.7537 4.69398 31.0651 4.90951 31.3772 5.12553C32.0054 5.56034 32.6364 5.99709 33.1725 6.56997C33.9106 7.33837 34.3778 8.32661 34.5032 9.38466C34.6287 10.4427 34.4055 11.5128 33.8675 12.4325C33.3193 13.4162 32.6276 14.3127 31.815 15.0925C31.225 15.625 31.0925 16.2075 31.72 16.8C32.1553 17.2104 32.3394 17.7473 32.5208 18.2766C32.6301 18.5953 32.7384 18.9112 32.9 19.195C33.4861 19.3126 33.6591 18.9519 33.8226 18.6112C33.8536 18.5464 33.8844 18.4824 33.9175 18.4225C34.6342 17.0573 35.6504 15.8719 36.89 14.955C37.224 14.7048 37.6182 14.5474 38.0327 14.4987C38.4471 14.45 38.8671 14.5116 39.25 14.6775C39.9703 14.9373 39.9803 15.5487 39.9902 16.1543C39.992 16.2654 39.9938 16.3764 40 16.485C40.1625 19.2604 39.5368 21.9136 38.9078 24.5807L38.9077 24.581C38.8399 24.8687 38.7719 25.1567 38.705 25.445C38.5416 25.9557 38.4971 26.497 38.575 27.0275C38.7222 27.0687 38.879 27.0587 39.0198 26.9992C39.1605 26.9397 39.277 26.8342 39.35 26.7C39.6205 26.0662 39.9491 25.4515 40.2776 24.8369C41.1633 23.1798 42.0485 21.5235 41.795 19.4975C41.7139 18.8499 41.6006 18.2066 41.4872 17.5626C41.3558 16.8169 41.2243 16.0703 41.1425 15.315C40.965 13.7475 41.2825 12.9225 42.3525 12.79C44.32 12.54 45.6225 13.405 45.76 14.995C45.9318 16.9982 45.5249 19.0087 44.5875 20.7875C44.0403 21.8534 43.4792 22.9194 42.8737 24.0697C42.6272 24.5381 42.3733 25.0205 42.11 25.5225C43.185 25.16 43.7875 24.5825 44.3825 23.9925C44.5612 23.8152 44.7368 23.6358 44.9121 23.4566C45.3202 23.0393 45.7267 22.6238 46.1675 22.2425C46.6475 21.8325 47.285 21.4375 47.835 22.0125C48.3789 22.5811 47.8715 23.1327 47.4999 23.5365L47.4875 23.55C45.645 25.55 43.615 27.335 40.9675 28.1975C40.5294 28.3295 40.1225 28.5485 39.7712 28.8415C39.4198 29.1344 39.1311 29.4953 38.9225 29.9025C37.45 32.6525 35.3425 34.9025 33.0825 37.0025C31.0825 38.8775 27.38 38.99 25.13 37.43C23.4875 36.29 23.9375 33.0475 25.365 31.8975C27.4632 30.2368 29.9737 29.1781 32.6275 28.835C33.0714 28.7782 33.1555 28.9978 33.2508 29.2467C33.2983 29.3707 33.3486 29.5019 33.4475 29.61ZM21.675 18.485C22.4505 17.0743 23.0477 15.6411 23.6333 14.2355C24.2993 12.6369 24.9505 11.074 25.8325 9.61998C26.4693 8.59857 27.1777 7.62362 27.9525 6.70248C28.7475 5.73998 29.2025 5.77748 30.075 6.70248C31.6025 8.34998 31.2675 10.65 29.61 12.145C28.6024 13.0547 27.4415 13.2762 26.2739 13.499C25.8916 13.572 25.5086 13.6451 25.13 13.7425C25.0659 13.7589 25.0016 13.7719 24.9385 13.7845C24.6371 13.8451 24.3644 13.8998 24.29 14.305C24.2448 14.4886 24.2581 14.6818 24.328 14.8575C24.3979 15.0332 24.521 15.1826 24.68 15.285C25.0117 15.5206 25.3547 15.7377 25.6974 15.9545C25.8093 16.0253 25.9211 16.0961 26.0325 16.1675C26.78 16.6268 27.3627 17.3113 27.6968 18.1225C28.031 18.9337 28.0995 19.8299 27.8925 20.6825C27.6426 21.7604 27.1353 22.7618 26.4138 23.6008C25.6924 24.4398 24.7784 25.0914 23.75 25.5C22.7775 25.915 21.9 25.725 21.3175 24.87C20.735 24.015 20.7225 23 21.425 22.225C21.553 22.0835 21.6794 21.9391 21.8061 21.7943L21.8062 21.7943C22.5508 20.9436 23.3071 20.0796 24.465 19.725C24.805 19.62 25.085 19.4175 24.9925 19.0075C24.9 18.5975 24.5675 18.5075 24.225 18.49C23.6829 18.4763 23.1455 18.479 22.5449 18.4821C22.2703 18.4835 21.9825 18.485 21.675 18.485ZM32.8379 31.4032C33.0165 30.9181 33.1991 30.4223 33.4 29.92C30.7925 30.7325 28.9775 32.105 27.3525 33.78C26.5 34.6475 26.5 35.61 27.25 36.3975C28.0625 37.235 29.0725 37.225 29.985 36.42C31.4793 35.0935 32.1275 33.3328 32.8379 31.4032Z" fill="#CDC18F"/>
<path d="M37.9952 43.1305V43.5355C37.6802 43.5445 37.4417 43.6165 37.2797 43.7515C37.1177 43.8865 36.9737 44.125 36.8477 44.467L34.2422 52.081H33.8777L31.8527 46.7215H31.7987L29.7602 52.081H29.4227L26.6147 45.007C26.4077 44.44 26.1962 44.0575 25.9802 43.8595C25.7642 43.6525 25.4807 43.5445 25.1297 43.5355V43.1305H28.6127V43.5355C28.2707 43.5355 28.0367 43.576 27.9107 43.657C27.7847 43.729 27.7217 43.837 27.7217 43.981C27.7217 44.152 27.7847 44.3995 27.9107 44.7235L29.4767 48.6655L29.8952 49.7995H29.9627L31.4882 45.8575L31.1102 44.818C30.9662 44.422 30.8357 44.134 30.7187 43.954C30.6017 43.774 30.4667 43.6615 30.3137 43.6165C30.1607 43.5625 29.9537 43.5355 29.6927 43.5355V43.1305H33.2162V43.5355C32.5322 43.5355 32.1902 43.6885 32.1902 43.9945C32.1902 44.1025 32.2172 44.2285 32.2712 44.3725C32.3252 44.5165 32.3747 44.6515 32.4197 44.7775L33.8237 48.4225L34.2692 49.759H34.3367L35.8757 45.277C35.9477 45.061 36.0062 44.854 36.0512 44.656C36.0962 44.458 36.1187 44.2735 36.1187 44.1025C36.1187 43.7245 35.8172 43.5355 35.2142 43.5355V43.1305H37.9952ZM50.5412 49.489L50.1632 52H42.9542V51.595C43.3232 51.595 43.5977 51.5725 43.7777 51.5275C43.9667 51.4735 44.0927 51.361 44.1557 51.19C44.2277 51.019 44.2637 50.758 44.2637 50.407V44.7775C44.2637 44.4355 44.2277 44.1745 44.1557 43.9945C44.0927 43.8145 43.9667 43.693 43.7777 43.63C43.5977 43.567 43.3232 43.5355 42.9542 43.5355V43.1305H50.0417L50.1227 45.3445H49.6907C49.6277 44.8945 49.5287 44.557 49.3937 44.332C49.2677 44.098 49.0562 43.9405 48.7592 43.8595C48.4712 43.7785 48.0482 43.738 47.4902 43.738H45.5057V47.167H47.0852C47.4992 47.167 47.8142 47.131 48.0302 47.059C48.2462 46.987 48.3947 46.852 48.4757 46.654C48.5567 46.456 48.5972 46.177 48.5972 45.817H49.0292V48.949H48.5972C48.5972 48.58 48.5567 48.3055 48.4757 48.1255C48.3947 47.9455 48.2462 47.8285 48.0302 47.7745C47.8142 47.7205 47.4992 47.6935 47.0852 47.6935H45.5057V51.406H47.2472C47.7692 51.406 48.1877 51.3835 48.5027 51.3385C48.8267 51.2845 49.0787 51.19 49.2587 51.055C49.4477 50.92 49.6007 50.7265 49.7177 50.4745C49.8437 50.2225 49.9742 49.894 50.1092 49.489H50.5412ZM55.8464 43.1305H59.5589C60.2609 43.1305 60.9134 43.207 61.5164 43.36C62.1284 43.504 62.6594 43.747 63.1094 44.089C63.5594 44.431 63.9104 44.881 64.1624 45.439C64.4234 45.997 64.5539 46.69 64.5539 47.518C64.5539 48.553 64.3514 49.4035 63.9464 50.0695C63.5504 50.7265 62.9879 51.2125 62.2589 51.5275C61.5299 51.8425 60.6794 52 59.7074 52H55.8464V51.595C56.2424 51.595 56.5349 51.568 56.7239 51.514C56.9129 51.451 57.0344 51.3295 57.0884 51.1495C57.1424 50.9605 57.1694 50.686 57.1694 50.326V44.6695C57.1694 44.3365 57.1289 44.0935 57.0479 43.9405C56.9669 43.7785 56.8319 43.6705 56.6429 43.6165C56.4539 43.5625 56.1884 43.5355 55.8464 43.5355V43.1305ZM58.4114 43.711V51.4465C58.6814 51.4735 58.9469 51.487 59.2079 51.487C60.0269 51.487 60.7289 51.379 61.3139 51.163C61.8989 50.938 62.3489 50.5465 62.6639 49.9885C62.9789 49.4305 63.1364 48.6475 63.1364 47.6395C63.1364 46.3525 62.8079 45.3715 62.1509 44.6965C61.4939 44.0215 60.4679 43.684 59.0729 43.684C58.9649 43.684 58.8569 43.684 58.7489 43.684C58.6499 43.684 58.5374 43.693 58.4114 43.711ZM70.1627 43.1305H73.8752C74.5772 43.1305 75.2297 43.207 75.8327 43.36C76.4447 43.504 76.9757 43.747 77.4257 44.089C77.8757 44.431 78.2267 44.881 78.4787 45.439C78.7397 45.997 78.8702 46.69 78.8702 47.518C78.8702 48.553 78.6677 49.4035 78.2627 50.0695C77.8667 50.7265 77.3042 51.2125 76.5752 51.5275C75.8462 51.8425 74.9957 52 74.0237 52H70.1627V51.595C70.5587 51.595 70.8512 51.568 71.0402 51.514C71.2292 51.451 71.3507 51.3295 71.4047 51.1495C71.4587 50.9605 71.4857 50.686 71.4857 50.326V44.6695C71.4857 44.3365 71.4452 44.0935 71.3642 43.9405C71.2832 43.7785 71.1482 43.6705 70.9592 43.6165C70.7702 43.5625 70.5047 43.5355 70.1627 43.5355V43.1305ZM72.7277 43.711V51.4465C72.9977 51.4735 73.2632 51.487 73.5242 51.487C74.3432 51.487 75.0452 51.379 75.6302 51.163C76.2152 50.938 76.6652 50.5465 76.9802 49.9885C77.2952 49.4305 77.4527 48.6475 77.4527 47.6395C77.4527 46.3525 77.1242 45.3715 76.4672 44.6965C75.8102 44.0215 74.7842 43.684 73.3892 43.684C73.2812 43.684 73.1732 43.684 73.0652 43.684C72.9662 43.684 72.8537 43.693 72.7277 43.711ZM85.8021 50.2315V44.9125C85.8021 44.5615 85.7796 44.287 85.7346 44.089C85.6896 43.882 85.5726 43.738 85.3836 43.657C85.2036 43.576 84.8976 43.5355 84.4656 43.5355V43.1305H88.3536V43.5355C87.9306 43.5355 87.6246 43.576 87.4356 43.657C87.2466 43.738 87.1296 43.882 87.0846 44.089C87.0486 44.287 87.0306 44.5615 87.0306 44.9125V50.2315C87.0306 50.6185 87.0576 50.911 87.1116 51.109C87.1656 51.298 87.2871 51.4285 87.4761 51.5005C87.6651 51.5635 87.9576 51.595 88.3536 51.595V52H84.4656V51.595C84.8706 51.595 85.1676 51.5635 85.3566 51.5005C85.5456 51.4285 85.6671 51.298 85.7211 51.109C85.7751 50.911 85.8021 50.6185 85.8021 50.2315ZM102.939 43.1305V43.5355C102.696 43.5355 102.512 43.558 102.386 43.603C102.269 43.639 102.161 43.7065 102.062 43.8055C101.954 43.8955 101.868 44.053 101.805 44.278C101.742 44.503 101.711 44.8585 101.711 45.3445V52.108H101.265L95.6763 44.8855H95.6088V49.9885C95.6088 50.4385 95.6403 50.7805 95.7033 51.0145C95.7663 51.2395 95.8878 51.3925 96.0678 51.4735C96.2478 51.5545 96.5043 51.595 96.8373 51.595V52H93.6783V51.595C94.0383 51.595 94.3083 51.559 94.4883 51.487C94.6683 51.406 94.7898 51.2485 94.8528 51.0145C94.9158 50.7805 94.9473 50.4385 94.9473 49.9885V44.224C94.7313 43.945 94.5423 43.7605 94.3803 43.6705C94.2183 43.5805 93.9843 43.5355 93.6783 43.5355V43.1305H95.9733L100.968 49.651H101.036V45.277C101.036 44.872 101.018 44.566 100.982 44.359C100.946 44.152 100.878 43.99 100.779 43.873C100.671 43.747 100.545 43.6615 100.401 43.6165C100.257 43.5625 100.041 43.5355 99.7533 43.5355V43.1305H102.939ZM117.009 47.815V48.247C116.631 48.247 116.383 48.3145 116.266 48.4495C116.149 48.5755 116.091 48.85 116.091 49.273V51.2305C115.605 51.5095 115.114 51.7345 114.619 51.9055C114.124 52.0675 113.503 52.1485 112.756 52.1485C111.325 52.1485 110.245 51.7525 109.516 50.9605C108.796 50.1595 108.436 49.039 108.436 47.599C108.436 46.6 108.625 45.7585 109.003 45.0745C109.39 44.3815 109.912 43.8595 110.569 43.5085C111.235 43.1485 111.991 42.9685 112.837 42.9685C113.332 42.9685 113.724 43.009 114.012 43.09C114.309 43.171 114.538 43.252 114.7 43.333C114.871 43.414 115.011 43.4545 115.119 43.4545C115.236 43.4545 115.321 43.4095 115.375 43.3195C115.438 43.2295 115.515 43.1125 115.605 42.9685H115.996V46.06H115.537C115.384 45.16 115.078 44.5165 114.619 44.1295C114.16 43.7425 113.571 43.549 112.851 43.549C111.897 43.549 111.154 43.9 110.623 44.602C110.101 45.295 109.84 46.24 109.84 47.437C109.84 48.814 110.115 49.8445 110.664 50.5285C111.222 51.2035 111.982 51.541 112.945 51.541C113.368 51.541 113.724 51.478 114.012 51.352C114.309 51.226 114.592 51.064 114.862 50.866V49.408C114.862 49.084 114.835 48.841 114.781 48.679C114.727 48.508 114.615 48.3955 114.444 48.3415C114.273 48.2785 114.016 48.247 113.674 48.247V47.815H117.009ZM127.873 45.6955H127.468C127.279 44.9485 127.027 44.395 126.712 44.035C126.397 43.675 125.897 43.4995 125.213 43.5085C124.754 43.5085 124.399 43.6165 124.147 43.8325C123.895 44.0395 123.769 44.3545 123.769 44.7775C123.769 45.1105 123.863 45.3985 124.052 45.6415C124.241 45.8755 124.489 46.087 124.795 46.276C125.101 46.465 125.42 46.6585 125.753 46.8565C126.05 47.0275 126.347 47.1985 126.644 47.3695C126.95 47.5405 127.225 47.734 127.468 47.95C127.72 48.166 127.918 48.418 128.062 48.706C128.215 48.994 128.291 49.3405 128.291 49.7455C128.291 50.2675 128.17 50.7085 127.927 51.0685C127.693 51.4285 127.369 51.703 126.955 51.892C126.541 52.072 126.073 52.162 125.551 52.162C125.083 52.162 124.7 52.126 124.403 52.054C124.115 51.991 123.886 51.928 123.715 51.865C123.553 51.793 123.418 51.757 123.31 51.757C123.22 51.757 123.139 51.7975 123.067 51.8785C122.995 51.9595 122.954 52.0675 122.945 52.2025H122.527L122.405 49.2865H122.824C122.986 49.9075 123.175 50.3845 123.391 50.7175C123.607 51.0415 123.872 51.2665 124.187 51.3925C124.511 51.5095 124.903 51.568 125.362 51.568C125.866 51.568 126.266 51.46 126.563 51.244C126.86 51.019 127.009 50.65 127.009 50.137C127.009 49.741 126.896 49.4125 126.671 49.1515C126.455 48.8905 126.176 48.661 125.834 48.463C125.492 48.256 125.137 48.049 124.768 47.842C124.408 47.635 124.061 47.4145 123.728 47.1805C123.395 46.9465 123.121 46.6675 122.905 46.3435C122.698 46.0195 122.594 45.6235 122.594 45.1555C122.594 44.6785 122.711 44.2825 122.945 43.9675C123.179 43.6435 123.49 43.396 123.877 43.225C124.264 43.054 124.691 42.9685 125.159 42.9685C125.573 42.9685 125.893 43.0045 126.118 43.0765C126.343 43.1395 126.518 43.207 126.644 43.279C126.779 43.351 126.901 43.387 127.009 43.387C127.225 43.387 127.364 43.2565 127.427 42.9955H127.778L127.873 45.6955Z" fill="white"/>
</svg>
